<?xml version="1.0" standalone="no"?>
<!DOCTYPE svg PUBLIC "-//W3C//DTD SVG 20010904//EN"
 "http://www.w3.org/TR/2001/REC-SVG-20010904/DTD/svg10.dtd">
<svg version="1.0" xmlns="http://www.w3.org/2000/svg"
 width="552.000000pt" height="776.000000pt" viewBox="0 0 552.000000 776.000000"
 preserveAspectRatio="xMidYMid meet">

<g transform="translate(0.000000,776.000000) scale(0.100000,-0.100000)"
fill="#000000" stroke="none">
<path d="M3049 7692 c-26 -11 -56 -26 -69 -35 -20 -14 -26 -13 -78 11 -108 49
-277 31 -437 -48 -45 -21 -89 -48 -99 -59 -17 -19 -20 -19 -59 -3 -64 24 -216
21 -291 -7 -116 -41 -188 -102 -246 -205 -26 -45 -38 -56 -86 -75 -65 -27
-151 -107 -183 -169 -27 -54 -51 -145 -51 -198 0 -28 -6 -46 -20 -59 -28 -25
-70 -118 -70 -153 0 -23 -8 -35 -39 -55 -59 -39 -95 -118 -89 -200 6 -105 76
-217 174 -280 l35 -22 2 -85 c2 -72 6 -91 29 -126 29 -45 77 -89 109 -99 18
-6 20 -11 12 -48 -11 -57 -9 -154 5 -203 7 -22 27 -58 45 -80 26 -29 32 -44
26 -59 -11 -30 -11 -140 2 -172 5 -15 23 -41 38 -58 15 -16 35 -51 45 -77 27
-75 147 -168 216 -168 15 0 21 -15 33 -87 9 -49 19 -113 22 -143 l7 -56 -139
-85 c-76 -47 -232 -141 -347 -210 l-208 -124 -137 -1 c-150 0 -220 -14 -352
-69 -225 -94 -418 -290 -458 -466 -15 -64 -13 -194 4 -266 48 -202 200 -380
453 -528 59 -35 124 -74 145 -87 24 -14 53 -47 75 -83 79 -130 234 -252 477
-375 124 -63 310 -137 403 -160 l42 -11 0 -59 c0 -73 -24 -188 -49 -238 -24
-47 -45 -66 -103 -91 -58 -25 -127 -86 -145 -128 -16 -38 -17 -133 -3 -185 14
-48 55 -97 97 -114 26 -12 200 -14 965 -14 1067 0 980 -8 1031 90 26 49 28 63
25 132 -4 102 -35 149 -128 195 -124 62 -170 152 -170 337 l0 103 73 28 c247
94 574 321 754 523 123 137 216 224 279 261 187 110 390 265 502 386 124 133
219 298 247 433 19 87 19 260 0 340 -32 133 -119 280 -211 355 -96 78 -256
136 -374 137 -25 0 -83 -7 -130 -16 l-85 -17 -315 103 c-363 118 -590 191
-673 216 -62 19 -57 10 -87 135 -11 45 -10 49 38 150 110 230 151 416 176 790
11 165 15 189 35 217 16 23 30 32 50 32 38 0 115 52 145 97 14 21 33 69 42
106 15 58 15 78 5 133 -9 48 -9 70 0 86 7 13 10 50 7 97 -5 84 -25 132 -88
216 -35 46 -38 56 -43 134 -9 146 -70 231 -198 275 -34 12 -65 28 -69 36 -46
98 -56 113 -97 137 -33 19 -63 27 -116 30 -47 3 -86 12 -111 25 -55 30 -157
34 -217 10z m141 -70 c0 -5 -19 -22 -42 -39 -34 -24 -56 -31 -107 -35 l-65 -5
37 32 c20 18 52 37 69 43 40 12 108 15 108 4z m-336 -28 c26 -9 46 -19 44 -23
-2 -3 -12 -25 -22 -48 -15 -33 -32 -49 -75 -72 -111 -59 -130 -62 -371 -71
-330 -11 -375 -30 -590 -250 -91 -93 -116 -113 -191 -149 -47 -22 -89 -41 -92
-41 -15 0 -6 66 14 107 24 49 122 143 149 143 14 0 20 -9 22 -32 2 -26 8 -34
26 -36 36 -5 49 13 54 81 6 76 26 116 87 177 95 95 244 134 373 96 79 -23 94
-21 142 18 111 91 316 139 430 100z m574 -31 l37 -16 -61 -8 c-34 -4 -76 -14
-95 -22 -25 -10 -40 -11 -57 -4 -33 15 -23 30 34 49 63 22 95 22 142 1z m-264
-102 c15 -6 -8 -25 -113 -95 -73 -48 -156 -99 -186 -112 -86 -40 -236 -64
-393 -64 -225 0 -305 -20 -455 -115 -78 -48 -174 -92 -183 -82 -2 2 42 50 99
108 159 162 270 207 487 196 128 -6 252 7 322 33 29 11 89 40 133 65 44 25 98
52 120 60 43 15 138 18 169 6z m321 -11 l26 -10 -42 -33 c-23 -17 -67 -61 -97
-97 -138 -167 -186 -201 -310 -220 -54 -9 -89 -8 -164 4 -143 23 -151 28 -81
50 82 26 130 52 285 155 226 149 306 180 383 151z m182 -89 c46 -21 89 -77 99
-129 l6 -32 -45 26 c-78 43 -202 42 -290 -3 -16 -8 -31 -13 -33 -10 -7 7 88
108 130 139 46 33 75 35 133 9z m34 -218 c44 -29 72 -78 67 -118 l-3 -30 -21
36 c-29 48 -93 79 -165 79 -65 0 -136 -30 -217 -94 -31 -24 -68 -47 -82 -51
-30 -9 122 138 180 173 76 46 178 48 241 5z m-1005 -82 c153 -46 227 -61 303
-61 52 0 150 18 196 34 47 18 -56 -57 -130 -94 -197 -99 -359 -68 -540 103
l-60 56 50 1 c31 0 102 -15 181 -39z m-338 0 c31 -16 92 -61 135 -99 43 -39
107 -85 142 -103 36 -19 60 -38 55 -43 -16 -16 -108 25 -206 90 -100 66 -148
85 -278 108 -42 7 -79 16 -83 19 -11 11 101 57 140 57 22 0 61 -12 95 -29z
m1288 -47 c44 -21 79 -90 71 -141 -4 -19 -9 -38 -12 -41 -13 -13 -61 28 -93
79 -19 30 -50 66 -69 79 -25 17 -30 25 -21 31 21 14 88 10 124 -7z m-1595 -48
c19 -8 85 -24 148 -36 131 -24 141 -29 274 -118 69 -46 94 -68 85 -74 -22 -14
-70 2 -168 58 -82 46 -104 54 -157 57 -56 3 -65 6 -98 40 -20 21 -57 48 -83
62 -52 27 -53 32 -1 11z m1840 -60 c26 -57 24 -123 -4 -177 -22 -41 -96 -109
-119 -109 -16 0 -1 170 16 189 19 22 52 90 60 124 8 35 22 27 47 -27z m-391
17 c17 -16 41 -48 54 -73 20 -39 65 -75 127 -102 4 -2 3 -41 -1 -88 -6 -64 -4
-102 7 -154 20 -91 13 -143 -26 -198 -30 -42 -31 -48 -36 -168 -17 -379 -73
-645 -182 -857 -55 -107 -88 -156 -144 -211 -104 -102 -245 -127 -445 -77
-125 31 -247 80 -354 143 -204 119 -327 270 -405 497 -16 44 -33 86 -38 93
-17 21 -47 13 -81 -23 -39 -41 -79 -46 -119 -15 -32 25 -144 206 -164 266 -22
66 -13 154 22 199 46 61 76 46 198 -96 36 -41 72 -90 81 -107 37 -73 120 -131
208 -146 55 -10 68 9 68 103 0 63 -5 87 -26 130 -15 29 -35 58 -45 64 -27 17
-24 72 5 139 14 31 28 72 31 92 l7 36 55 0 c87 0 146 44 159 119 14 85 41 119
128 163 33 17 84 45 111 62 68 43 144 72 240 89 44 8 107 27 140 42 45 21 73
28 112 26 63 -3 146 20 193 53 46 33 82 33 120 -1z m-1490 -40 c55 -22 78 -51
132 -158 27 -55 69 -120 91 -144 l42 -43 -58 4 c-69 6 -100 31 -152 123 -60
107 -122 149 -225 149 -36 1 -78 -3 -95 -7 -29 -8 -29 -8 -10 13 24 26 77 60
124 76 40 15 96 10 151 -13z m-403 -55 c-128 -153 -217 -354 -217 -490 l0 -62
-29 40 c-38 52 -55 107 -46 152 10 54 31 81 81 102 41 18 44 22 44 57 0 96 56
179 153 228 28 14 53 25 55 25 2 0 -16 -24 -41 -52z m758 -116 l83 -48 -29
-32 c-34 -37 -46 -39 -99 -12 -39 20 -100 105 -100 139 0 23 56 5 145 -47z
m-484 17 c47 -16 92 -61 128 -129 36 -68 84 -113 138 -130 21 -7 41 -16 46
-19 4 -4 -18 -25 -48 -46 l-56 -38 -50 24 c-63 29 -92 63 -115 131 -35 106
-83 140 -201 140 -40 0 -73 2 -73 4 0 2 19 14 43 26 91 49 129 56 188 37z
m2019 -207 c-9 -40 -22 -64 -51 -93 -53 -53 -65 -51 -73 15 -3 30 -8 61 -11
68 -4 9 8 20 32 31 21 9 54 27 73 41 43 29 48 18 30 -62z m-2115 54 c33 -14
56 -47 69 -98 l6 -26 -48 15 c-66 20 -148 12 -199 -20 -46 -29 -75 -65 -104
-133 -25 -56 -39 -45 -39 31 0 40 7 63 33 105 68 113 186 166 282 126z m105
-221 l139 -46 -34 -45 c-19 -24 -37 -60 -41 -80 l-6 -35 -57 55 c-106 100
-187 94 -259 -19 -20 -31 -26 -56 -30 -115 -2 -41 1 -94 6 -117 11 -49 6 -52
-33 -21 -32 25 -55 74 -55 117 0 45 49 222 71 258 30 49 94 89 147 92 7 1 76
-19 152 -44z m219 -125 c-31 -82 -25 -109 44 -208 26 -37 49 -122 33 -122 -4
0 -22 6 -40 14 -81 34 -140 182 -107 269 11 28 69 97 81 97 4 0 0 -23 -11 -50z
m-371 -520 c35 -57 42 -76 37 -100 -7 -31 -41 -80 -56 -80 -18 0 -51 83 -51
134 -1 55 10 116 20 116 4 -1 26 -32 50 -70z m302 -161 c13 -34 37 -81 52
-105 27 -43 28 -50 28 -172 1 -262 54 -487 166 -694 91 -168 134 -267 193
-446 34 -101 61 -187 61 -193 0 -10 -102 -12 -136 -3 -18 5 -25 22 -43 107
-30 138 -75 282 -123 397 -131 310 -149 372 -193 667 -26 165 -54 417 -55 476
0 47 24 30 50 -34z m-133 -4 c-9 -64 -31 -100 -82 -135 -25 -17 -54 -48 -65
-68 l-19 -37 -1 43 c0 53 22 108 55 134 14 11 37 39 51 64 17 29 33 44 46 44
19 0 20 -4 15 -45z m42 -333 c14 -83 22 -155 17 -159 -13 -14 -94 39 -123 80
-23 33 -28 51 -28 99 0 57 2 61 43 99 23 22 48 39 55 36 7 -2 22 -65 36 -155z
m432 -95 c138 -98 356 -188 523 -218 l64 -11 6 -44 c6 -44 -15 -296 -35 -409
-13 -76 -65 -324 -82 -388 l-12 -48 -96 98 c-90 93 -247 283 -316 384 -44 64
-129 238 -163 337 -36 100 -70 289 -70 385 l0 70 58 -54 c31 -30 87 -76 123
-102z m1064 -184 c37 -250 -40 -464 -243 -675 -69 -72 -251 -223 -258 -215 -1
1 8 49 21 107 48 216 95 554 95 681 l0 56 56 7 c85 10 175 56 242 123 67 68
64 71 87 -84z m136 -207 c51 -280 -195 -811 -531 -1146 -121 -122 -513 -420
-551 -420 -18 0 -190 -90 -302 -157 -214 -129 -476 -336 -592 -467 -31 -36
-62 -66 -67 -66 -26 0 -246 144 -248 162 -1 16 140 175 256 289 262 258 431
390 779 608 197 124 635 420 758 514 290 219 445 477 448 741 l1 91 18 -40
c11 -22 25 -71 31 -109z m91 107 c88 -94 244 -384 275 -510 65 -269 -57 -640
-259 -789 -60 -44 -146 -89 -154 -81 -2 2 16 39 41 83 56 98 98 205 138 354
30 110 31 124 32 310 0 152 -4 215 -19 285 -21 103 -59 258 -80 328 -17 54
-11 59 26 20z m526 -128 c116 -38 212 -72 212 -76 0 -4 -9 -10 -20 -14 -11 -3
-59 -32 -107 -64 -80 -53 -160 -126 -226 -206 l-25 -29 -21 70 c-27 90 -103
247 -175 358 -31 48 -56 88 -56 90 0 4 83 -21 418 -129z m747 -116 c62 -19
120 -54 177 -104 l33 -30 -77 -7 c-120 -11 -213 -43 -324 -112 l-41 -26 -28
96 -27 97 59 59 58 59 55 -7 c30 -4 82 -15 115 -25z m-325 -7 c0 -5 -14 -21
-31 -38 -77 -73 -196 -252 -317 -478 -159 -298 -263 -454 -452 -681 -253 -302
-593 -581 -955 -785 -280 -157 -694 -340 -769 -340 -31 0 -186 48 -186 58 0
12 290 197 400 255 140 75 378 181 620 277 301 120 561 286 725 463 104 113
161 193 240 336 74 134 107 227 134 376 12 66 27 138 33 160 41 156 304 367
493 395 28 4 53 8 58 9 4 0 7 -3 7 -7z m-2580 -91 l0 -90 -82 -54 c-104 -69
-164 -99 -270 -135 -128 -45 -160 -48 -208 -21 -22 12 -40 25 -40 28 0 3 95
62 211 131 116 69 248 148 293 177 44 28 84 52 89 52 4 1 7 -39 7 -88z m174
-210 c40 -115 93 -328 85 -335 -2 -2 -39 -1 -81 1 l-77 6 -5 61 c-3 33 -7 160
-10 280 l-4 220 25 -53 c13 -30 43 -110 67 -180z m1453 -19 c6 -159 -2 -240
-37 -383 -41 -168 -124 -335 -217 -436 l-48 -53 -289 -70 c-159 -39 -291 -69
-292 -67 -2 1 36 33 84 69 48 37 124 100 169 140 268 241 493 596 585 926 21
74 24 79 31 55 5 -16 11 -97 14 -181z m974 3 c54 -221 72 -465 49 -679 -9 -89
-10 -91 -76 -188 -37 -54 -69 -96 -71 -95 -1 2 2 39 7 83 37 294 25 728 -26
929 -3 14 7 36 33 68 45 55 40 63 84 -118z m572 93 c32 -25 87 -189 87 -262 0
-28 -6 -39 -27 -52 -158 -97 -300 -219 -444 -381 l-54 -61 -1 181 c-1 122 -7
225 -20 311 l-18 128 29 24 c47 37 141 84 208 104 73 22 215 26 240 8z m-3154
-330 l1 -68 -72 1 c-40 1 -106 4 -146 8 l-73 6 56 44 c31 25 93 89 138 144
l82 99 7 -83 c3 -46 6 -114 7 -151z m2426 28 c19 -167 19 -327 0 -541 -37
-416 -84 -564 -224 -705 -221 -223 -537 -422 -821 -518 -190 -64 -186 -65 -93
27 116 115 229 315 298 527 25 77 55 218 55 261 0 16 27 54 83 116 124 138
241 287 333 427 77 118 125 199 274 469 75 134 73 136 95 -63z m-2666 71 c-47
-45 -99 -90 -116 -99 l-30 -17 -32 43 c-17 25 -31 46 -31 49 0 2 24 9 53 16
28 7 90 30 137 51 47 21 90 38 95 39 6 0 -29 -37 -76 -82z m888 -108 c40 -41
73 -78 73 -82 0 -4 -33 -7 -74 -7 l-74 0 -25 73 c-14 39 -37 104 -51 142 l-27
70 53 -60 c29 -33 85 -94 125 -136z m-1396 147 c98 -21 157 -53 229 -126 l65
-65 -85 -2 c-256 -7 -556 -26 -691 -44 -85 -11 -176 -22 -204 -26 l-50 -6 25
28 c40 44 140 115 213 151 184 93 345 122 498 90z m3989 -224 c0 -35 -41 -165
-72 -225 -66 -132 -198 -278 -378 -419 -87 -68 -339 -232 -346 -225 -2 2 26
52 61 112 164 276 457 601 665 739 62 41 70 43 70 18z m-3110 -67 c151 -9 321
-19 377 -23 l102 -7 -80 -53 -79 -53 -124 20 c-213 36 -293 43 -565 48 -328 6
-479 -10 -737 -77 -206 -54 -408 -142 -542 -236 -35 -25 -66 -44 -68 -42 -10
11 -24 151 -19 193 9 68 26 123 41 136 44 36 389 88 689 102 202 10 763 5
1005 -8z m-270 -144 l45 -8 -35 -6 c-19 -3 -75 -9 -125 -12 -388 -27 -871
-219 -1119 -446 l-64 -59 -34 42 c-19 24 -44 60 -57 82 -26 47 -25 49 78 119
213 143 555 254 886 286 113 11 366 12 425 2z m-206 -136 c-145 -48 -221 -85
-324 -155 -176 -121 -304 -298 -332 -459 -12 -70 -20 -67 -38 15 -15 65 -15
158 1 294 l13 112 65 33 c143 71 364 143 542 175 167 30 190 25 73 -15z m549
6 c14 -5 -2 -19 -78 -66 -113 -70 -313 -217 -440 -324 -131 -109 -344 -321
-438 -434 l-82 -98 -33 38 c-58 65 -67 90 -66 178 1 132 64 258 193 385 140
139 299 217 583 285 135 32 323 51 361 36z m1287 -286 c-152 -153 -309 -248
-663 -399 -98 -42 -180 -76 -183 -76 -11 0 -345 -155 -422 -197 -99 -53 -242
-141 -371 -229 -51 -35 -97 -64 -103 -64 -17 0 -163 62 -177 76 -29 27 230
264 452 412 340 228 448 270 1132 438 126 31 270 73 320 94 49 21 94 38 100
39 5 0 -33 -42 -85 -94z m-2607 -47 c-16 -89 -13 -232 6 -282 10 -25 9 -28 -7
-24 -26 7 -214 133 -241 162 l-22 23 56 51 c53 49 199 152 214 152 5 0 2 -37
-6 -82z m2653 -318 c-30 -118 -52 -173 -127 -320 -78 -153 -142 -237 -238
-312 -107 -85 -176 -119 -265 -129 -87 -10 -236 -12 -236 -2 0 12 89 149 134
208 99 127 227 254 314 311 101 66 218 156 346 266 50 42 91 76 93 75 1 -2 -8
-45 -21 -97z m-815 -540 c-37 -49 -85 -122 -107 -161 l-39 -71 -105 6 c-116 6
-286 34 -273 46 4 4 55 24 113 45 58 21 186 80 285 131 99 50 183 92 187 93 4
1 -24 -39 -61 -89z m653 -289 c4 -50 15 -122 25 -160 20 -83 28 -76 -96 -92
-124 -16 -918 -23 -1101 -10 -147 11 -227 23 -238 34 -3 3 2 29 11 59 8 29 18
92 22 141 7 100 -1 96 118 68 216 -52 513 -73 745 -52 126 11 436 72 470 92
32 18 37 9 44 -80z m192 -381 c82 -42 114 -83 114 -146 0 -51 -12 -86 -40
-114 -20 -20 -27 -20 -954 -20 l-934 0 -26 30 c-30 37 -42 102 -27 158 13 45
44 74 121 112 25 12 55 31 67 42 21 19 24 19 114 4 167 -29 415 -39 824 -33
380 5 566 19 613 46 13 8 22 4 38 -17 12 -14 52 -42 90 -62z"/>
<path d="M4606 1142 c-3 -4 -14 -78 -25 -163 -11 -85 -36 -273 -56 -419 -20
-146 -41 -301 -46 -345 -10 -77 -29 -125 -49 -125 -6 0 -10 -4 -10 -10 0 -5
25 -10 55 -10 59 0 64 4 38 32 -14 16 -15 27 -4 106 18 129 14 122 75 122 l52
0 12 -83 c16 -108 15 -132 -3 -147 -28 -24 -15 -30 65 -30 44 0 80 2 80 5 0 3
-9 18 -19 33 -19 26 -26 68 -76 457 -8 61 -21 162 -30 225 -8 63 -22 169 -31
235 -15 121 -18 133 -28 117z m9 -631 c8 -68 12 -128 9 -132 -6 -11 -81 -12
-87 -1 -5 7 27 281 39 342 7 34 8 33 16 -25 4 -33 15 -116 23 -184z"/>
<path d="M5245 1141 c-63 -5 -68 -7 -47 -19 l22 -13 0 -499 c0 -489 0 -500
-20 -512 -11 -7 -20 -16 -20 -20 0 -5 65 -8 145 -8 l145 0 -1 153 -1 152 -18
-89 c-25 -116 -37 -144 -71 -161 -36 -19 -55 -19 -63 1 -3 9 -6 233 -6 499 0
484 0 484 21 496 17 9 19 13 8 20 -8 5 -16 8 -19 7 -3 -1 -36 -4 -75 -7z"/>
<path d="M19 1116 c23 -24 24 -33 91 -526 69 -514 76 -550 99 -525 4 6 21 118
36 250 15 132 38 332 51 445 13 113 27 234 31 269 4 42 12 70 25 83 10 10 18
20 18 23 0 3 -26 5 -57 4 -56 0 -57 -1 -35 -16 29 -20 29 -23 -13 -361 -19
-156 -35 -300 -35 -322 0 -21 -4 -41 -8 -44 -5 -3 -14 47 -21 112 -7 64 -23
205 -36 312 -14 107 -27 214 -30 237 -3 29 0 47 10 57 8 8 15 17 15 20 0 3
-37 6 -82 6 l-81 0 22 -24z"/>
<path d="M800 1131 c0 -5 7 -14 15 -21 13 -11 15 -79 15 -505 0 -426 -2 -494
-15 -505 -8 -7 -15 -16 -15 -21 0 -5 65 -9 145 -9 l145 0 -1 158 -1 157 -14
-88 c-16 -105 -50 -170 -96 -186 -57 -20 -58 -15 -58 251 0 222 1 239 17 236
23 -4 41 -44 58 -126 12 -64 13 -55 13 163 -1 158 -3 210 -8 165 -10 -80 -31
-135 -59 -150 l-21 -11 0 230 c0 215 1 230 19 236 42 13 80 -32 100 -120 29
-135 29 -135 30 13 l1 142 -135 0 c-74 0 -135 -4 -135 -9z"/>
<path d="M1520 1133 c0 -5 7 -17 15 -27 22 -29 22 -973 0 -1002 -8 -10 -15
-22 -15 -26 0 -5 32 -8 70 -8 39 0 70 2 70 3 0 2 -7 18 -15 35 -13 26 -15 97
-13 518 2 379 6 488 16 492 33 11 5 22 -58 22 -38 0 -70 -3 -70 -7z"/>
<path d="M2090 1137 c0 -1 9 -20 20 -42 19 -38 20 -59 20 -507 0 -456 -1 -469
-20 -485 -31 -27 -24 -33 35 -33 30 0 55 3 55 6 0 3 -10 14 -22 24 l-23 18 0
401 c0 221 2 401 5 401 3 0 40 -132 83 -293 44 -160 95 -353 115 -427 l37
-135 5 511 c5 466 7 512 23 537 l17 27 -56 0 -57 0 27 -25 26 -24 -1 -303 c0
-167 -4 -292 -9 -278 -4 14 -42 150 -84 303 -42 152 -81 288 -86 302 -8 22
-15 25 -60 25 -27 0 -50 -1 -50 -3z"/>
<path d="M2860 1132 c0 -4 9 -13 19 -19 19 -12 20 -29 23 -455 l3 -443 27 -57
c30 -64 64 -88 126 -88 50 0 84 26 108 82 16 39 18 87 22 493 4 440 4 451 25
473 l20 22 -56 0 c-60 0 -68 -5 -39 -26 16 -11 17 -46 20 -436 4 -462 0 -513
-45 -548 -55 -43 -96 -17 -113 70 -6 30 -10 231 -10 470 0 407 1 418 21 444
l20 26 -85 0 c-47 0 -86 -3 -86 -8z"/>
<path d="M3650 1135 c0 -3 9 -14 20 -25 19 -19 20 -33 20 -505 0 -472 -1 -486
-20 -505 -11 -11 -20 -22 -20 -25 0 -3 36 -5 80 -5 44 0 80 3 80 6 0 4 -8 13
-17 20 -16 11 -18 37 -21 248 -2 143 1 236 6 236 6 0 13 -11 16 -25 10 -41
106 -474 106 -480 0 -3 25 -5 55 -5 30 0 55 2 55 5 0 3 -7 17 -16 31 -9 13
-27 71 -39 127 -13 56 -33 145 -45 197 -11 52 -25 109 -31 127 -9 29 -7 38 22
79 44 64 59 122 59 224 0 136 -39 233 -107 265 -29 14 -203 23 -203 10z m168
-45 c33 -31 52 -112 52 -219 0 -110 -19 -193 -51 -227 -47 -50 -49 -42 -49
214 0 268 2 275 48 232z"/>
</g>
</svg>
